<svg width="25" height="20" viewBox="0 0 25 20" fill="none" xmlns="http://www.w3.org/2000/svg">
<path d="M24.4444 9.99985C24.4444 9.43937 24.0264 8.97617 23.4841 8.90287L23.3333 8.89276L3.80148 8.89365L10.8578 1.89161C11.2926 1.46019 11.2941 0.759224 10.8611 0.325947C10.4675 -0.0679398 9.85032 -0.104996 9.41465 0.215649L9.2898 0.322577L0.326836 9.21475C0.269516 9.27161 0.21973 9.33316 0.177475 9.39815C0.165541 9.41772 0.153391 9.43773 0.141874 9.45814C0.131281 9.47565 0.121708 9.49382 0.112677 9.51219C0.100132 9.53892 0.0878773 9.56654 0.0767498 9.59472C0.067709 9.61645 0.0601597 9.63758 0.0532742 9.65888C0.0450878 9.68529 0.0371342 9.71344 0.0302925 9.74202C0.0252056 9.76197 0.0211773 9.78117 0.017664 9.80045C0.0127239 9.82913 0.00851822 9.85881 0.00551605 9.88885C0.00292587 9.91175 0.00136566 9.93445 0.00050354 9.95717C0.00028038 9.97094 0 9.98537 0 9.99985L0.000556946 10.0427C0.00140953 10.0645 0.00289917 10.0862 0.00502777 10.1078L0 9.99985C0 10.0697 0.00649643 10.1381 0.0189171 10.2043C0.0217972 10.2202 0.0252285 10.2364 0.0290298 10.2526C0.0369225 10.2859 0.0460434 10.318 0.0565453 10.3495C0.0617008 10.3651 0.0677071 10.3818 0.0741253 10.3984C0.0871086 10.4317 0.101221 10.4635 0.116747 10.4944C0.12396 10.5089 0.132038 10.5242 0.140497 10.5392C0.154383 10.5638 0.168688 10.5872 0.183813 10.61C0.194485 10.6261 0.206303 10.6429 0.218643 10.6594L0.228258 10.6721C0.258194 10.7111 0.290668 10.748 0.325438 10.7827L0.326771 10.7837L9.28973 19.6774C9.72455 20.1088 10.4281 20.1074 10.8611 19.6741C11.2547 19.2803 11.2893 18.6651 10.9657 18.2324L10.8578 18.1085L3.80445 11.1078L23.3333 11.1069C23.947 11.1069 24.4444 10.6113 24.4444 9.99985Z" fill="white"/>
</svg>
