<svg width="25" height="20" viewBox="0 0 25 20" fill="none" xmlns="http://www.w3.org/2000/svg">
<path d="M24.4445 9.99985C24.4445 9.43937 24.0265 8.97617 23.4841 8.90287L23.3333 8.89276L3.80149 8.89365L10.8578 1.89161C11.2926 1.46019 11.2941 0.759224 10.8612 0.325947C10.4675 -0.0679398 9.85034 -0.104996 9.41466 0.215649L9.28981 0.322577L0.326847 9.21475C0.269527 9.27161 0.219742 9.33316 0.177486 9.39815C0.165552 9.41772 0.153402 9.43773 0.141886 9.45814C0.131292 9.47565 0.121719 9.49382 0.112688 9.51219C0.100143 9.53892 0.0878887 9.56654 0.0767612 9.59472C0.0677204 9.61645 0.0601711 9.63758 0.0532856 9.65888C0.0450993 9.68529 0.0371456 9.71344 0.030304 9.74202C0.0252171 9.76197 0.0211887 9.78117 0.0176754 9.80045C0.0127354 9.82913 0.00852966 9.85881 0.0055275 9.88885C0.00293732 9.91175 0.00137711 9.93445 0.000514984 9.95717C0.000291824 9.97094 1.14441e-05 9.98537 1.14441e-05 9.99985L0.00056839 10.0427C0.00142097 10.0645 0.00291061 10.0862 0.00503922 10.1078L1.14441e-05 9.99985C1.14441e-05 10.0697 0.00650787 10.1381 0.0189285 10.2043C0.0218086 10.2202 0.0252399 10.2364 0.0290413 10.2526C0.0369339 10.2859 0.0460548 10.318 0.0565567 10.3495C0.0617123 10.3651 0.0677185 10.3818 0.0741367 10.3984C0.0871201 10.4317 0.101233 10.4635 0.116758 10.4944C0.123972 10.5089 0.13205 10.5242 0.140509 10.5392C0.154394 10.5638 0.168699 10.5872 0.183825 10.61C0.194496 10.6261 0.206314 10.6429 0.218655 10.6594L0.22827 10.6721C0.258205 10.7111 0.29068 10.748 0.325449 10.7827L0.326782 10.7837L9.28974 19.6774C9.72456 20.1088 10.4281 20.1074 10.8611 19.6741C11.2547 19.2803 11.2893 18.6651 10.9657 18.2324L10.8578 18.1085L3.80446 11.1078L23.3333 11.1069C23.947 11.1069 24.4445 10.6113 24.4445 9.99985Z" fill="white"/>
</svg>
